{"title":"Barney.Thomson.2015.WEBRip.480p.x264.AAC-VYTO [P2PDL]","uid":13424111,"size":358482988,"categoryP":"video","categoryS":"hd___movies","magnet":"?xt=urn:btih:c33f996f5dae0a6d271e9818ea9a0501072ea902&amp;dn=Barney.Thomson.2015.WEBRip.480p.x264.AAC-VYTO+%5BP2PDL%5D&amp;tr=udp%3A%2F%2Ftracker.leechers-paradise.org%3A6969&amp;tr=udp%3A%2F%2Fzer0day.ch%3A1337&amp;tr=udp%3A%2F%2Fopen.demonii.com%3A1337&amp;tr=udp%3A%2F%2Ftracker.coppersurfer.tk%3A6969&amp;tr=udp%3A%2F%2Fexodus.desync.com%3A6969","seeders":1,"leechers":0,"uploader":"VYTOP2PDL","files":7,"time":1454576923,"description":"Barney.Thomson.2015.WEBRip.480p.x264.AAC-VYTO\r\n\r\n\r\nGenre: Comedy, Crime  \nhttp://www.imdb.com/title/tt2552394/\r\n\r\n\r\n\r\nFormat                                   : MPEG-4\r\nFile size                                : 337 MiB\r\nDuration                                 : 1h 36mn\r\nOverall bit rate                         : 490 Kbps\r\n\r\nVideo\r\nFormat                                   : AVC\r\nBit rate                                 : 455 Kbps\r\nWidth                                    : 720 pixels\r\nHeight                                   : 304 pixels\r\nDisplay aspect ratio                     : 2.35:1\r\nFrame rate mode                          : Constant\r\nFrame rate                               : 23.976 fps\r\nBit depth                                : 8 bits\r\nStream size                              : 312 MiB (93%)\r\nWriting library                          : x264\r\n\r\nAudio\r\nFormat                                   : AAC\r\nBit rate                                 : 32.0 Kbps\r\nChannel(s)                               : 2 channels\r\nChannel positions                        : Front: L R\r\nSampling rate                            : 48.0 KHz \r\nStream size                              : 22.0 MiB (7%)\r\nLanguage                                 : English\r\n\r\nSubtitle                                 : Yes (English)\r\n\r\nScreen Shot: (Click to view)\r\n \nhttp://ititli.com/XXm \nhttp://ititli.com/XXx \nhttp://ititli.com/XX7 \nhttp://ititli.com/XXC \nhttp://ititli.com/XXF \nhttp://ititli.com/XXJ \nhttp://ititli.com/XX5 \nhttp://ititli.com/XXB \nhttp://ititli.com/XXN \nhttp://ititli.com/XXP \nhttp://ititli.com/XXf \nhttp://ititli.com/XXu\r\n\r\n----------------------------------------------------------------------------------------------------\r\n\r\n\r\nEncoder Notes: Looking For Early Access To Anything You Can Provide WEBDL, DVDScr, DVDR, BluRay,\r\nDirect Audio, Music Releases and Seedboxes. If You Got anything to offer please contact us.\r\n\r\nSupport us by donating BC - 1FgwdzPsd1y25Gea8wP1qni35uGCtmkRCD\r\n\r\nSend some love!\r\nFind us and join us!","torrent":{"xt":"urn:btih:c33f996f5dae0a6d271e9818ea9a0501072ea902","amp;dn":"Barney.Thomson.2015.WEBRip.480p.x264.AAC-VYTO+%5BP2PDL%5D","amp;tr":["udp%3A%2F%2Ftracker.leechers-paradise.org%3A6969","udp%3A%2F%2Fzer0day.ch%3A1337","udp%3A%2F%2Fopen.demonii.com%3A1337","udp%3A%2F%2Ftracker.coppersurfer.tk%3A6969","udp%3A%2F%2Fexodus.desync.com%3A6969"],"infoHash":"c33f996f5dae0a6d271e9818ea9a0501072ea902","infoHashBuffer":{"type":"Buffer","data":[195,63,153,111,93,174,10,109,39,30,152,24,234,154,5,1,7,46,169,2]},"announce":[],"urlList":[]}}